<?xml version="1.0" encoding="UTF-8" standalone="no"?>
<!-- Created with Inkscape (http://www.inkscape.org/) -->

<svg
   width="210mm"
   height="297mm"
   viewBox="0 0 210 297"
   version="1.1"
   id="svg5"
   inkscape:version="1.1.2 (0a00cf5339, 2022-02-04)"
   sodipodi:docname="drawing.svg"
   xmlns:inkscape="http://www.inkscape.org/namespaces/inkscape"
   xmlns:sodipodi="http://sodipodi.sourceforge.net/DTD/sodipodi-0.dtd"
   xmlns="http://www.w3.org/2000/svg"
   xmlns:svg="http://www.w3.org/2000/svg">
  <sodipodi:namedview
     id="namedview7"
     pagecolor="#ffffff"
     bordercolor="#666666"
     borderopacity="1.0"
     inkscape:pageshadow="2"
     inkscape:pageopacity="0.0"
     inkscape:pagecheckerboard="0"
     inkscape:document-units="mm"
     showgrid="false"
     inkscape:lockguides="false"
     showguides="false"
     inkscape:zoom="0.65156945"
     inkscape:cx="-58.320721"
     inkscape:cy="542.53618"
     inkscape:window-width="1782"
     inkscape:window-height="991"
     inkscape:window-x="26"
     inkscape:window-y="23"
     inkscape:window-maximized="0"
     inkscape:current-layer="layer1" />
  <defs
     id="defs2" />
  <g
     inkscape:label="Layer 1"
     inkscape:groupmode="layer"
     id="layer1">
    <g
       id="g3934"
       transform="translate(-3.6546373,-1.6242833)">
      <path
         style="fill:#fefefe;stroke-width:0.264583"
         d="M 16.152075,138.65935 V 89.049973 h 88.106245 88.10624 v 49.609377 49.60937 H 104.25832 16.152075 Z m 92.889755,48.2472 c 0.55748,-1.04167 10e-4,-4.76407 -1.8717,-12.52845 -6.36284,-26.37566 -6.70937,-25.8096 20.01573,-32.69578 8.73195,-2.24993 6.85234,-3.94187 -8.05384,-7.24968 -19.306082,-4.28419 -19.239849,-4.24344 -20.435342,-12.57433 -1.614696,-11.25218 -7.469594,-31.183008 -9.375155,-31.91424 -1.439405,-0.552351 -1.761577,1.084359 -2.922831,14.84861 -0.940607,11.14893 -1.751182,15.69453 -3.583553,20.09608 -2.375287,5.7057 -4.772234,5.88207 -19.434942,1.4301 -21.665815,-6.57831 -23.010683,-6.29887 -12.435416,2.58384 2.619375,2.20015 6.19125,5.28319 7.9375,6.85121 3.796665,3.40917 6.44463,5.54953 8.993594,7.26955 5.876959,3.96573 5.637051,5.9865 -2.943979,24.79715 -9.212666,20.19528 -8.847338,20.3699 9.296217,4.44332 13.356248,-11.72424 12.845886,-11.80462 24.170726,3.80654 8.065081,11.11763 9.636211,12.71726 10.642991,10.83608 z m -2.53567,-1.33913 c -1.32764,-1.4749 -4.24343,-5.3247 -9.676993,-12.77682 -9.206306,-12.62643 -9.863936,-12.66892 -22.601054,-1.46045 -11.596345,10.20461 -14.684374,12.4912 -14.684374,10.87332 0,-0.63188 2.106152,-5.64032 5.293463,-12.58787 6.697988,-14.59997 7.466711,-16.70062 7.510097,-20.52245 0.03372,-2.96985 -0.515919,-4.1255 -2.673053,-5.62034 -4.12859,-2.86099 -5.837878,-4.21907 -10.43428,-8.29031 -2.816101,-2.49435 -7.083996,-6.19002 -9.484211,-8.21261 -4.797087,-4.04234 -5.33431,-4.76769 -3.305874,-4.4635 2.128218,0.31914 8.953317,2.1388 16.268858,4.33749 15.645939,4.70238 17.970383,4.50368 20.743483,-1.77324 1.498671,-3.39224 2.738461,-9.66856 3.326162,-16.83838 1.682763,-20.529298 1.672306,-20.502438 4.685844,-12.038537 3.489399,9.800427 5.05306,15.893187 6.416857,25.003127 1.039339,6.94261 1.840704,8.5308 4.928105,9.76677 1.6304,0.65269 13.10542,3.5784 17.711,4.51565 12.29559,2.50219 13.45427,3.77533 5.29167,5.81444 -24.38178,6.09086 -25.3615,7.36931 -20.74027,27.06405 3.27816,13.97084 3.50501,15.12355 3.36769,17.11216 -0.12012,1.73963 -0.45005,1.75618 -1.94312,0.0975 z M 90.9492,153.93904 c -0.01413,-0.40019 -0.0019,-1.62873 0.02713,-2.73009 l 0.05282,-2.00249 3.306276,-0.25869 c 5.364336,-0.41971 4.911666,-1.77377 -1.129065,-3.37735 -2.309503,-0.61308 -2.309503,-0.61308 -2.309503,-2.04229 v -1.4292 l 2.510706,-0.22062 c 1.405723,-0.12352 3.967519,-0.11518 5.820833,0.019 3.536923,0.25599 3.587323,0.2533 3.321013,-0.17761 -0.11495,-0.186 -2.15346,-0.2822 -5.979626,-0.2822 h -5.805217 v -1.26334 c 0,-1.26335 0,-1.26335 2.642401,-1.71425 2.588768,-0.44176 5.824265,-1.72938 5.824265,-2.31788 0,-0.3815 -0.13285,-0.33965 -1.662734,0.52377 -1.361829,0.76857 -4.488003,1.5967 -6.027481,1.5967 -0.776451,0 -0.776451,0 -0.776451,-3.175 0,-1.74625 -0.103484,-3.175 -0.229965,-3.175 -0.334958,0 -0.557546,1.6679 -0.560872,4.20274 l -0.0029,2.21836 -1.785937,-0.13545 c -1.122704,-0.0852 -2.559875,-0.44619 -3.869975,-0.97218 -1.914295,-0.76856 -2.748167,-0.88977 -2.131656,-0.30986 0.55971,0.52648 4.338587,1.66064 6.001631,1.80128 2.615972,0.22122 2.837564,2.83016 0.264583,3.1151 -6.464532,0.71593 -6.464532,1.74969 0,3.04246 1.521354,0.30424 1.521354,0.30424 1.521354,2.10648 v 1.80223 l -2.05052,0.18133 c -7.897127,0.69835 -12.766145,1.37023 -12.766145,1.76161 0,0.37888 1.830451,0.27462 5.061232,-0.28828 3.758221,-0.65481 9.413761,-1.2286 9.662073,-0.98029 0.1026,0.1026 0.275296,1.28675 0.38377,2.63145 0.230158,2.85317 0.179165,2.57719 0.476207,2.57719 0.130596,0 0.225891,-0.32742 0.211762,-0.7276 z m 0.07995,-6.75855 v -1.7215 l 1.845175,0.47462 c 5.847466,1.50411 5.997064,2.34768 0.493578,2.78327 l -2.338753,0.1851 z m -3.832873,-2.99176 c -3.845192,-0.95157 -3.6171,-1.37801 0.988602,-1.84824 l 1.785938,-0.18234 v 1.35945 c 0,0.7477 -0.02977,1.35171 -0.06615,1.34223 -0.03638,-0.009 -1.255157,-0.31147 -2.708394,-0.6711 z"
         id="path3938" />
      <path
         style="fill:#4897fe;stroke-width:0.264583"
         d="m 107.11418,187.19568 c -0.67116,-0.3913 -4.1514,-4.83386 -8.715341,-11.12521 -11.32484,-15.61116 -10.814478,-15.53078 -24.170726,-3.80654 -10.854194,9.52791 -13.841896,11.7475 -14.89362,11.06462 -1.047146,-0.67991 -0.593566,-1.93658 5.597403,-15.50794 8.58103,-18.81065 8.820938,-20.83142 2.943979,-24.79715 -2.548964,-1.72002 -5.196929,-3.86038 -8.993594,-7.26955 -1.74625,-1.56802 -5.318125,-4.65106 -7.9375,-6.85121 -6.775455,-5.69105 -7.40279,-6.44293 -5.863843,-7.02804 1.116065,-0.42433 6.855306,0.96952 18.299259,4.4442 14.662708,4.45197 17.059655,4.2756 19.434942,-1.4301 1.832371,-4.40155 2.642946,-8.94715 3.583553,-20.09608 1.161254,-13.764251 1.483426,-15.400961 2.922831,-14.84861 1.905561,0.731232 7.760459,20.66206 9.375155,31.91424 1.195493,8.33089 1.12926,8.29014 20.435342,12.57433 14.90618,3.30781 16.78579,4.99975 8.05384,7.24968 -26.7251,6.88618 -26.37857,6.32012 -20.01573,32.69578 2.72715,11.30477 2.7135,14.43226 -0.0559,12.81758 z m 1.3351,-1.72576 c 0.13732,-1.98861 -0.0895,-3.14132 -3.36769,-17.11216 -4.62123,-19.69474 -3.64151,-20.97319 20.74027,-27.06405 8.1626,-2.03911 7.00392,-3.31225 -5.29167,-5.81444 -4.60558,-0.93725 -16.0806,-3.86296 -17.711,-4.51565 -3.087401,-1.23597 -3.888766,-2.82416 -4.928105,-9.76677 -1.363797,-9.10994 -2.927458,-15.2027 -6.416857,-25.003127 -3.013538,-8.463901 -3.003081,-8.490761 -4.685844,12.038537 -0.587701,7.16982 -1.827491,13.44614 -3.326162,16.83838 -2.7731,6.27692 -5.097544,6.47562 -20.743483,1.77324 -7.315541,-2.19869 -14.14064,-4.01835 -16.268858,-4.33749 -2.028436,-0.30419 -1.491213,0.42116 3.305874,4.4635 2.400215,2.02259 6.66811,5.71826 9.484211,8.21261 4.596402,4.07124 6.30569,5.42932 10.43428,8.29031 2.157134,1.49484 2.706769,2.65049 2.673053,5.62034 -0.04339,3.82183 -0.812109,5.92248 -7.510097,20.52245 -3.187311,6.94755 -5.293463,11.95599 -5.293463,12.58787 0,1.61788 3.088029,-0.66871 14.684374,-10.87332 12.737118,-11.20847 13.394748,-11.16598 22.601054,1.46045 10.514913,14.42118 11.430823,15.42058 11.620113,12.67932 z M 90.47922,154.60049 c -0.01143,-0.0364 -0.109516,-1.16635 -0.21799,-2.51104 -0.108474,-1.3447 -0.28117,-2.52885 -0.38377,-2.63145 -0.248312,-0.24831 -5.903851,0.32548 -9.662072,0.98029 -3.230782,0.5629 -5.061233,0.66716 -5.061233,0.28828 0,-0.39138 4.869018,-1.06326 12.766145,-1.76161 l 2.050521,-0.18133 v -1.80223 c 0,-1.80224 0,-1.80224 -1.521354,-2.10648 -6.464533,-1.29277 -6.464533,-2.32653 0,-3.04246 2.57298,-0.28494 2.351389,-2.89388 -0.264584,-3.1151 -1.663043,-0.14064 -5.44192,-1.2748 -6.00163,-1.80128 -0.616511,-0.57991 0.21736,-0.4587 2.131655,0.30986 1.3101,0.52599 2.747272,0.88702 3.869975,0.97218 l 1.785938,0.13545 0.0029,-2.21836 c 0.0033,-2.53484 0.225917,-4.20274 0.560875,-4.20274 0.126481,0 0.229965,1.42875 0.229965,3.175 0,3.175 0,3.175 0.776451,3.175 1.539478,0 4.665652,-0.82813 6.027481,-1.5967 1.529884,-0.86342 1.662734,-0.90527 1.662734,-0.52377 0,0.5885 -3.235497,1.87612 -5.824265,2.31788 -2.642401,0.4509 -2.642401,0.4509 -2.642401,1.71425 v 1.26334 h 5.805217 c 3.826162,0 5.864672,0.0962 5.979622,0.28219 0.26631,0.43091 0.21591,0.4336 -3.321009,0.17761 -1.853314,-0.13414 -4.41511,-0.14248 -5.820833,-0.019 l -2.510706,0.22063 v 1.4292 c 0,1.42921 0,1.42921 2.309503,2.04229 6.040731,1.60358 6.493401,2.95764 1.129065,3.37735 l -3.306276,0.25869 -0.05282,2.00249 c -0.02905,1.10136 -0.04126,2.3299 -0.02713,2.73009 0.01955,0.55378 -0.343408,1.06462 -0.46998,0.66145 z m 6.110052,-6.24923 c 1.877666,-0.38402 0.365673,-1.36801 -3.714943,-2.41765 l -1.845175,-0.47462 v 1.7215 1.72149 l 2.338753,-0.1851 c 1.286314,-0.10181 2.735929,-0.26634 3.221365,-0.36562 z m -6.618451,-4.83366 v -1.35945 l -1.785938,0.18234 c -4.605702,0.47023 -4.833794,0.89667 -0.988602,1.84824 1.453237,0.35963 2.672014,0.66163 2.708394,0.6711 0.03638,0.009 0.06615,-0.59453 0.06615,-1.34223 z"
         id="path3936" />
    </g>
  </g>
</svg>
