<?xml version="1.0" encoding="UTF-8" standalone="no"?>
<!-- Created with Inkscape (http://www.inkscape.org/) -->

<svg
   version="1.1"
   id="svg4151"
   width="666"
   height="375"
   viewBox="0 0 666 375"
   sodipodi:docname="my_logo_green.png.svg"
   inkscape:version="1.1.2 (0a00cf5339, 2022-02-04)"
   xmlns:inkscape="http://www.inkscape.org/namespaces/inkscape"
   xmlns:sodipodi="http://sodipodi.sourceforge.net/DTD/sodipodi-0.dtd"
   xmlns="http://www.w3.org/2000/svg"
   xmlns:svg="http://www.w3.org/2000/svg">
  <defs
     id="defs4155" />
  <sodipodi:namedview
     id="namedview4153"
     pagecolor="#ffffff"
     bordercolor="#666666"
     borderopacity="1.0"
     inkscape:pageshadow="2"
     inkscape:pageopacity="0.0"
     inkscape:pagecheckerboard="0"
     showgrid="false"
     inkscape:zoom="2.0773333"
     inkscape:cx="329.99037"
     inkscape:cy="222.64121"
     inkscape:window-width="1920"
     inkscape:window-height="1043"
     inkscape:window-x="0"
     inkscape:window-y="0"
     inkscape:window-maximized="1"
     inkscape:current-layer="g4157" />
  <g
     inkscape:groupmode="layer"
     inkscape:label="Image"
     id="g4157">
    <g
       id="g4625"
       transform="translate(18.292686,1.9255498)">
      <path
         style="fill:#fefefe"
         d="M -18.292683,184.61168 V -2.8883181 h 333.000003 333 v 187.4999981 187.5 h -333 -333.000003 z m 351.102303,181.75 c 1.67627,-4.37853 -0.27594,-17.41276 -6.55266,-43.75 -24.09236,-101.09193 -23.99688,-101.28879 59.45036,-122.58421 25.3845,-6.47803 29.45879,-7.76292 31.93716,-10.07187 6.39445,-5.95734 -4.07112,-11.80448 -31.93716,-17.84334 -38.8107,-8.41069 -69.50477,-16.21741 -77.01585,-19.58818 -10.48977,-4.70753 -11.21118,-6.5963 -17.53595,-45.9124 C 285.35859,70.57683 264.40556,3.1285428 258.27763,0.7770362 c -5.39398,-2.0698649 -6.6194,4.2447363 -11.03998,56.8891108 -3.41965,40.724315 -6.55302,58.030643 -13.5495,74.836943 -8.78711,21.10759 -17.8492,22.21511 -65.49136,8.00397 -38.07486,-11.35731 -42.22993,-12.54125 -55.93696,-15.93851 -15.453193,-3.83006 -22.260723,-4.38085 -23.220853,-1.87879 -1.14377,2.98062 1.17645,5.28705 29.219123,29.04566 6.57207,5.56806 18.92422,16.31821 27.44922,23.88923 15.59339,13.84842 18.63291,16.27763 33.73542,26.96155 18.65169,13.19471 17.64998,24.68604 -6.80366,78.04925 -42.52814,92.80574 -42.42776,92.90428 30.06824,29.5171 36.68514,-32.07582 40.64226,-34.29701 51.62724,-28.97927 7.58888,3.67371 13.08575,10.31192 48.87276,59.02048 19.95672,27.16245 26.87894,33.28157 29.6023,26.16792 z m -9.34966,-4.08337 c -4.13935,-4.42529 -11.33179,-13.89865 -40.74522,-53.66663 -30.69826,-41.50511 -34.54601,-41.65251 -78.50742,-3.00735 -49.78256,43.76236 -59.64036,50.91568 -58.23367,42.25735 0.55716,-3.42938 13.35633,-33.04812 26.25194,-60.75 28.8572,-61.98998 29.31798,-72.03672 4.10964,-89.60531 -6.52965,-4.55075 -20.47965,-15.90101 -31,-25.2228 -10.52035,-9.3218 -26.51472,-23.18644 -35.54305,-30.81031 -27.955893,-23.60703 -25.820023,-23.62986 51.91514,-0.55488 31.54499,9.36385 35.75531,10.35096 46.55031,10.91374 26.28995,1.37059 35.1656,-19.22755 41.46095,-96.220438 4.67189,-57.1378556 5.70275,-60.5165901 12.87038,-42.184135 13.73958,35.141332 22.83712,69.248265 28.58986,107.184133 5.28005,34.81877 3.08638,33.50879 87.95338,52.52275 47.91567,10.73522 49.03998,13.36965 9.98352,23.39288 -88.00617,22.58541 -89.96397,26.14005 -66.41443,120.58437 10.683,42.84363 10.9042,56.01303 0.75867,45.16663 z M 264.20732,234.36306 v -9.75138 l 5.5,-0.4436 5.5,-0.4436 -5.5,-0.5564 c -5.5,-0.5564 -5.5,-0.5564 -5.80721,-5.94919 -0.39998,-7.02116 -0.003,-7.25395 8.53499,-5.00525 18.31459,4.82359 21.37376,7.99101 9.5538,9.89184 -5.78158,0.92977 -5.78158,0.92977 1.14752,0.48889 14.28509,-0.90893 9.16632,-6.82038 -10.1754,-11.75113 l -8.7537,-2.23156 v -5.5 -5.5 l 6,-0.75898 c 3.3,-0.41744 13.425,-0.51078 22.5,-0.20742 11.63867,0.38906 16.05806,0.24305 15,-0.49559 -0.93927,-0.65571 -9.35015,-1.0152 -22.5,-0.96167 l -21,0.0855 -0.29665,-4.91921 -0.29665,-4.9192 9.74002,-1.61963 c 9.64907,-1.60452 22.35328,-6.63418 22.35328,-8.8498 0,-1.17321 0.23579,-1.25955 -7,2.56307 -5.83846,3.08442 -15.05167,5.48974 -21.25,5.5478 l -3.75,0.0351 v -12 c 0,-6.6 -0.38732,-12 -0.86071,-12 -1.08723,0 -2.11928,8.4209 -2.1306,17.38437 l -0.009,6.88436 -6.75,-0.49932 c -4.15216,-0.30715 -9.80856,-1.69418 -14.69711,-3.60393 -4.3709,-1.70753 -8.18287,-2.86883 -8.47104,-2.58067 -1.62888,1.62889 11.58721,6.3408 21.66815,7.7253 l 8.25,1.13305 v 5.27842 c 0,2.90313 -0.41744,5.27842 -0.92764,5.27842 -0.5102,0 -4.44278,0.48891 -8.73907,1.08647 -19.10658,2.65748 -18.48206,6.06173 1.91671,10.44788 l 7.75,1.66641 v 6.82766 6.82767 l -5.25,0.54916 c -2.8875,0.30203 -14.14388,1.47194 -25.01418,2.59979 -22.6696,2.35208 -25.73582,2.8594 -25.73582,4.25805 0,1.22981 8.50296,0.44953 25.97337,-2.38347 6.86035,-1.11247 16.53535,-2.10298 21.5,-2.20114 l 9.02694,-0.17848 0.24751,6 c 0.61249,14.84757 2.75249,16.9867 2.75249,2.75138 z m -14.41335,-28.82285 c -14.15632,-3.54193 -13.28395,-4.90233 4.66335,-7.27222 l 6.25,-0.82529 v 5.33449 c 0,2.93397 -0.3375,5.28584 -0.75,5.22637 -0.4125,-0.0595 -4.98601,-1.16797 -10.16335,-2.46335 z"
         id="path4629" />
      <path
         style="fill:#16fe71"
         d="m 321.07198,362.81913 c -3.22556,-3.46091 -11.26466,-13.64232 -17.86466,-22.62537 -55.86241,-76.03253 -49.92836,-74.25874 -100.5,-30.04121 -72.496,63.38718 -72.59638,63.28864 -30.06824,-29.5171 24.45364,-53.36321 25.45535,-64.85454 6.80366,-78.04925 -15.10251,-10.68392 -18.14203,-13.11313 -33.73542,-26.96155 -8.525,-7.57102 -20.87715,-18.32117 -27.44922,-23.88923 -28.042673,-23.75861 -30.362893,-26.06504 -29.219123,-29.04566 0.96013,-2.50206 7.76766,-1.95127 23.220853,1.87879 13.70703,3.39726 17.8621,4.5812 55.93696,15.93851 47.64216,14.21114 56.70425,13.10362 65.49136,-8.00397 6.99648,-16.8063 10.12985,-34.112628 13.5495,-74.836943 4.42058,-52.6443745 5.646,-58.9589757 11.03998,-56.8891108 6.12793,2.3515066 27.08096,69.7997938 32.87789,105.8346438 6.32477,39.3161 7.04618,41.20487 17.53595,45.9124 7.51108,3.37077 38.20515,11.17749 77.01585,19.58818 27.86604,6.03886 38.33161,11.886 31.93716,17.84334 -2.47837,2.30895 -6.55266,3.59384 -31.93716,10.07187 -83.44724,21.29542 -83.54272,21.49228 -59.45036,122.58421 10.70984,44.93867 9.31383,55.76413 -5.18498,40.20745 z m 9.63534,-2.69153 c 0,-7.08495 -2.80603,-22.16159 -8.00603,-43.01592 -23.54954,-94.44432 -21.59174,-97.99896 66.41443,-120.58437 39.05646,-10.02323 37.93215,-12.65766 -9.98352,-23.39288 -84.867,-19.01396 -82.67333,-17.70398 -87.95338,-52.52275 -5.75274,-37.935868 -14.85028,-72.042801 -28.58986,-107.184133 -7.16763,-18.3324551 -8.19849,-14.9537206 -12.87038,42.184135 -6.29535,76.992888 -15.171,97.591028 -41.46095,96.220438 -10.795,-0.56278 -15.00532,-1.54989 -46.55031,-10.91374 -77.735163,-23.07498 -79.871033,-23.05215 -51.91514,0.55488 9.02833,7.62387 25.0227,21.48851 35.54305,30.81031 10.52035,9.32179 24.47035,20.67205 31,25.2228 25.20834,17.56859 24.74756,27.61533 -4.10964,89.60531 -12.89561,27.70188 -25.69478,57.32062 -26.25194,60.75 -1.40669,8.65833 8.45111,1.50501 58.23367,-42.25735 43.96141,-38.64516 47.80916,-38.49776 78.50742,3.00735 47.65221,64.42745 47.99258,64.7928 47.99258,51.51592 z M 262.25015,240.86168 c -0.3013,-1.7875 -0.65919,-5.95 -0.79532,-9.25 l -0.24751,-6 -9.02663,0.17848 c -4.96465,0.0982 -14.63965,1.08867 -21.5,2.20114 -17.47041,2.833 -25.97337,3.61328 -25.97337,2.38347 0,-1.39865 3.06622,-1.90597 25.73582,-4.25805 10.8703,-1.12785 22.12668,-2.29776 25.01418,-2.59979 l 5.25,-0.54916 v -6.82767 -6.82766 l -7.75,-1.66641 c -20.39877,-4.38615 -21.02329,-7.7904 -1.91671,-10.44788 4.29629,-0.59756 8.22887,-1.08647 8.73907,-1.08647 0.5102,0 0.92764,-2.37529 0.92764,-5.27842 v -5.27842 l -8.25,-1.13305 c -10.08094,-1.3845 -23.29703,-6.09641 -21.66815,-7.7253 0.28817,-0.28816 4.10014,0.87314 8.47104,2.58067 4.88855,1.90975 10.54495,3.29678 14.69711,3.60393 l 6.75,0.49932 0.009,-6.88436 c 0.011,-8.96347 1.04306,-17.38437 2.13029,-17.38437 0.47339,0 0.86071,5.4 0.86071,12 v 12 l 3.75,-0.0351 c 6.19833,-0.0581 15.41154,-2.46338 21.25,-5.5478 7.23579,-3.82262 7,-3.73628 7,-2.56307 0,2.21562 -12.70421,7.24528 -22.35328,8.84979 l -9.74002,1.61963 0.29665,4.9192 0.29665,4.91921 21,-0.0855 c 13.14985,-0.0535 21.56073,0.30596 22.5,0.96167 1.05806,0.73864 -3.36133,0.88465 -15,0.49559 -9.075,-0.30336 -19.2,-0.21002 -22.5,0.20742 l -6,0.75898 v 5.5 5.5 l 8.7537,2.23156 c 19.34172,4.93075 24.46049,10.8422 10.1754,11.75113 -6.9291,0.44088 -6.9291,0.44088 -1.14752,-0.48889 11.81996,-1.90083 8.76079,-5.06825 -9.5538,-9.89184 -8.53801,-2.2487 -8.93497,-2.01591 -8.53499,5.00525 0.30721,5.39277 0.30721,5.39277 5.80721,5.94917 l 5.5,0.5564 -5.5,0.4436 -5.5,0.4436 v 9.75138 c 0,9.6924 -0.90971,12.71302 -1.95717,6.49862 z m -1.54283,-38.08449 v -5.33449 l -6.25,0.82529 c -9.72125,1.28366 -16.02784,2.96585 -14.99421,3.99948 0.71246,0.71246 16.71426,5.19118 20.49421,5.73609 0.4125,0.0595 0.75,-2.2924 0.75,-5.22637 z"
         id="path4627" />
    </g>
  </g>
</svg>
